<?xml version="1.0" encoding="UTF-8"?>
<!DOCTYPE svg PUBLIC "-//W3C//DTD SVG 1.1//EN" "http://www.w3.org/Graphics/SVG/1.1/DTD/svg11.dtd">
<!-- Creator: CorelDRAW 2020 (64-Bit) -->
<svg xmlns="http://www.w3.org/2000/svg" xml:space="preserve" width="0.59002in" height="0.59in" version="1.1" style="shape-rendering:geometricPrecision; text-rendering:geometricPrecision; image-rendering:optimizeQuality; fill-rule:evenodd; clip-rule:evenodd"
viewBox="0 0 18.55 18.55"
 xmlns:xlink="http://www.w3.org/1999/xlink"
 xmlns:xodm="http://www.corel.com/coreldraw/odm/2003">
 <defs>
  <style type="text/css">
   <![CDATA[
    .fil1 {fill:none}
    .fil0 {fill:#FEFEFE;fill-rule:nonzero}
   ]]>
  </style>
 </defs>
 <g id="Layer_x0020_1">
  <metadata id="CorelCorpID_0Corel-Layer"/>
  <g id="_1216979252544">
   <path class="fil0" d="M6.1 4.38c0.18,0 0.33,0.06 0.45,0.18 0.12,0.12 0.17,0.28 0.17,0.46l0 6.7c0,0.2 -0.07,0.36 -0.2,0.5 -0.13,0.13 -0.3,0.2 -0.5,0.2 -0.1,0 -0.2,-0.02 -0.3,-0.05 -0.1,-0.03 -0.18,-0.08 -0.24,-0.14l-4.52 -5.73 0.3 -0.18 0 5.47c0,0.18 -0.06,0.34 -0.18,0.46 -0.12,0.12 -0.27,0.18 -0.47,0.18 -0.18,0 -0.33,-0.06 -0.45,-0.18 -0.12,-0.12 -0.17,-0.28 -0.17,-0.46l0 -6.7c0,-0.2 0.07,-0.36 0.2,-0.5 0.13,-0.13 0.3,-0.2 0.5,-0.2 0.11,0 0.22,0.02 0.33,0.06 0.12,0.04 0.2,0.1 0.25,0.19l4.38 5.58 -0.2 0.14 0 -5.33c0,-0.18 0.06,-0.34 0.17,-0.46 0.12,-0.12 0.27,-0.18 0.46,-0.18l-0 0zm10.32 8.94c0.03,0 0.07,0.01 0.11,0.02 0.04,0.01 0.08,0.03 0.13,0.07 0.06,0.05 0.14,0.09 0.23,0.13 0.09,0.04 0.19,0.06 0.31,0.06 0.12,0 0.23,-0.03 0.33,-0.09 0.1,-0.06 0.19,-0.14 0.25,-0.25 0.07,-0.11 0.1,-0.24 0.1,-0.38 0,-0.14 -0.03,-0.26 -0.09,-0.35 -0.06,-0.09 -0.13,-0.17 -0.23,-0.21 -0.1,-0.05 -0.2,-0.07 -0.31,-0.07 -0.08,0 -0.15,0.01 -0.21,0.02 -0.06,0.02 -0.11,0.03 -0.16,0.05 -0.05,0.02 -0.11,0.02 -0.18,0.02 -0.09,0 -0.15,-0.03 -0.2,-0.09 -0.05,-0.06 -0.07,-0.13 -0.07,-0.21 0,-0.05 0.01,-0.1 0.03,-0.14 0.02,-0.04 0.05,-0.09 0.09,-0.13l0.99 -1.05 0.15 0.13 -1.38 0c-0.09,0 -0.17,-0.03 -0.22,-0.09 -0.06,-0.06 -0.09,-0.13 -0.09,-0.22 0,-0.09 0.03,-0.16 0.09,-0.21 0.06,-0.06 0.13,-0.09 0.22,-0.09l1.72 0c0.12,0 0.2,0.03 0.26,0.1 0.06,0.06 0.09,0.14 0.09,0.24 0,0.05 -0.01,0.09 -0.04,0.14 -0.03,0.05 -0.06,0.09 -0.09,0.13l-0.99 1.07 -0.15 -0.19c0.04,-0.02 0.1,-0.04 0.17,-0.05 0.07,-0.02 0.13,-0.02 0.18,-0.02 0.22,0 0.41,0.06 0.58,0.17 0.16,0.11 0.29,0.26 0.38,0.44 0.09,0.18 0.13,0.38 0.13,0.59 0,0.28 -0.06,0.51 -0.18,0.72 -0.12,0.2 -0.3,0.36 -0.52,0.47 -0.22,0.11 -0.49,0.16 -0.78,0.16 -0.14,0 -0.28,-0.02 -0.41,-0.05 -0.13,-0.03 -0.25,-0.08 -0.35,-0.13 -0.08,-0.05 -0.14,-0.09 -0.17,-0.15 -0.03,-0.06 -0.04,-0.1 -0.04,-0.15 0,-0.09 0.03,-0.17 0.09,-0.25 0.06,-0.08 0.14,-0.12 0.23,-0.12l0 -0.01zm-7.24 -8.94c0.18,0 0.35,0.07 0.49,0.2 0.14,0.13 0.21,0.3 0.21,0.5l0 6.64c0,0.2 -0.07,0.36 -0.22,0.5 -0.15,0.13 -0.32,0.2 -0.51,0.2 -0.21,0 -0.39,-0.07 -0.52,-0.2 -0.13,-0.13 -0.2,-0.3 -0.2,-0.5l0 -6.64c0,-0.2 0.07,-0.36 0.21,-0.5 0.14,-0.13 0.32,-0.2 0.53,-0.2zm5.09 0c0.21,0 0.39,0.07 0.52,0.2 0.13,0.13 0.2,0.3 0.2,0.5l0 6.64c0,0.2 -0.07,0.36 -0.2,0.5 -0.13,0.13 -0.31,0.2 -0.53,0.2 -0.18,0 -0.35,-0.07 -0.49,-0.2 -0.14,-0.13 -0.21,-0.3 -0.21,-0.5l0 -6.64c0,-0.2 0.07,-0.36 0.22,-0.5 0.15,-0.13 0.32,-0.2 0.51,-0.2l-0 0zm-5.13 3.35l5.13 0 0 1.32 -5.13 0 0 -1.32z"/>
   <rect class="fil1" x="-0" width="18.55" height="18.55"/>
  </g>
 </g>
</svg>
