<?xml version="1.0" encoding="UTF-8"?>
<!DOCTYPE svg PUBLIC "-//W3C//DTD SVG 1.1//EN" "http://www.w3.org/Graphics/SVG/1.1/DTD/svg11.dtd">
<!-- Creator: CorelDRAW 2020 (64-Bit) -->
<svg xmlns="http://www.w3.org/2000/svg" xml:space="preserve" width="0.590004in" height="0.59113in" version="1.1" style="shape-rendering:geometricPrecision; text-rendering:geometricPrecision; image-rendering:optimizeQuality; fill-rule:evenodd; clip-rule:evenodd"
viewBox="0 0 129 129.25"
 xmlns:xlink="http://www.w3.org/1999/xlink"
 xmlns:xodm="http://www.corel.com/coreldraw/odm/2003">
 <defs>
  <style type="text/css">
   <![CDATA[
    .fil1 {fill:none}
    .fil0 {fill:#FEFEFE}
   ]]>
  </style>
 </defs>
 <g id="Layer_x0020_1">
  <metadata id="CorelCorpID_0Corel-Layer"/>
  <path class="fil0" d="M66.74 123.2c-7.39,0 -9.52,0.09 -16.82,-1.74 -1.85,-0.46 -3.55,-1.01 -5.34,-1.63 -0.92,-0.32 -1.69,-0.64 -2.54,-1.01 -4.06,-1.75 -7.7,-3.6 -11.3,-6.21 -3.59,-2.6 -8.06,-6.44 -11,-10.06 -0.53,-0.65 -0.99,-1.23 -1.53,-1.89 -7.01,-8.54 -12.27,-22.43 -12.27,-33.4l0 -5.27c0,-10.33 4.4,-21.94 9.66,-29.83 0.29,-0.43 0.49,-0.66 0.77,-1.08 0.28,-0.42 0.48,-0.71 0.76,-1.08 0.5,-0.66 0.98,-1.38 1.55,-2.01 1.84,-2.06 2.98,-3.67 5.2,-5.73 0.36,-0.33 0.56,-0.42 0.92,-0.79 3.4,-3.43 9.55,-7.39 13.87,-9.56 2.51,-1.26 5.11,-2.24 7.79,-3.13 4.34,-1.45 10.62,-2.76 15.29,-2.75 0.73,0 1.24,-0.08 1.73,-0.11 0.43,-0.02 1.01,0.12 1.69,0.12 6.06,-0.03 12.75,1.08 18.45,3.14 2.98,1.08 7.14,2.81 9.88,4.47 2.99,1.81 5.95,3.59 8.56,5.92 1.76,1.57 2.94,2.52 4.67,4.28 2.06,2.08 4.82,5.67 6.4,7.95l1.44 2.25c1.22,2.05 2.08,3.77 3.16,5.92 0.41,0.8 0.74,1.61 1.08,2.47l1.49 3.91c2.24,6.26 2.78,12.92 2.78,19.99 0,4.66 -0.71,8.64 -1.66,12.43 -0.5,2.01 -1,3.66 -1.65,5.46 -3.49,9.72 -9.41,18.42 -17.32,25.07l-1.96 1.59c-9.09,7.1 -21.62,12.32 -33.75,12.32zm36.59 -70.03c0.06,0.71 0.4,1.76 0.56,2.6 1.49,7.77 1.02,14.74 -0.88,22.36 -0.25,0.99 -0.94,3.03 -1,3.74 0.67,0.36 1.64,0.92 2.63,0.92l1.04 -3.57c1.97,-6.74 2.38,-14.73 1.37,-21.74 -0.11,-0.75 -0.56,-4.96 -1.36,-4.96 -1.34,0 -1.49,0.07 -2.37,0.66zm-70.95 -13.56c0.15,0.2 1.83,1.6 2.24,1.71 0.14,-0.51 3.63,-3.99 4.18,-4.51 0.31,-0.3 0.42,-0.32 0.73,-0.59 3.25,-2.87 4.88,-4.06 8.66,-6.34 1.9,-1.15 4.59,-2.49 6.73,-3.28l3.8 -1.34c-0.22,-0.94 -0.59,-1.94 -1.05,-2.63 -3.28,0.76 -8.06,3.13 -11.02,4.78 -1.92,1.08 -4.56,2.88 -6.27,4.26 -2.42,1.96 -3.33,2.82 -5.52,5.01l-1.25 1.38c-0.33,0.34 -1.11,1.14 -1.22,1.55zm-1.58 51.47c0.55,1.03 3.35,3.74 4.48,4.61l3.59 2.86c4.15,3.11 8.95,5.31 13.8,7.13 0.68,0.26 1.28,0.38 2.01,0.63 0.54,0.18 1.52,0.53 2.06,0.58 0.32,-0.48 0.82,-1.64 0.71,-2.34 -0.06,-0.39 -0.19,-0.4 -0.28,-0.47 -0.28,-0.22 -1.04,-0.33 -1.4,-0.44 -4.07,-1.17 -8.58,-3.27 -12.12,-5.39 -1.75,-1.05 -4.92,-3.35 -6.36,-4.7l-1.97 -1.84c-0.74,-0.74 -2.21,-1.98 -2.53,-2.47 -0.73,0.49 -1.49,1.11 -1.97,1.84zm80.56 -42.25c0.22,2.58 2.24,6.85 2.24,14.22 0,5.47 -0.13,8.15 -1.45,13.43 -0.69,2.78 -1.31,4.32 -2.28,6.8 -0.23,0.58 -0.7,1.69 -0.75,2.28 0.46,0.24 1.95,1.01 2.5,1.05 0.37,-0.7 0.64,-1.39 0.96,-2.2 0.32,-0.83 0.61,-1.58 0.9,-2.39 3.53,-9.77 3.94,-20.51 1.4,-30.66 -0.66,-2.65 -0.57,-4.09 -3.53,-2.53zm-86.88 -13.29c0,0.75 1.74,1.74 2.11,1.84 0.41,-0.61 0.89,-1.18 1.37,-1.79 5.5,-7 13.59,-13.13 22.01,-16.03 0.47,-0.16 0.72,-0.26 1.16,-0.42l4.94 -1.38c0.93,-0.19 1.06,-0.25 1.06,-0.91 0,-2.62 -1.01,-2.17 -3.64,-1.4 -1.76,0.51 -3.25,0.92 -4.99,1.59 -8.05,3.09 -12.06,6.14 -17.99,11.37 -0.29,0.26 -0.51,0.51 -0.79,0.79 -0.98,0.97 -5.23,5.84 -5.23,6.35zm-0.4 60.02c0.14,0.6 0.25,0.54 0.6,0.98l3.84 4.32c0.57,0.57 1.06,1.11 1.64,1.65 4.55,4.21 10.31,7.99 16.05,10.28 2.47,0.98 7.77,2.91 10.38,2.91 0.7,0 0.91,-2.07 0.92,-2.63 -0.57,-0.01 -1.92,-0.38 -2.5,-0.53 -0.85,-0.21 -1.68,-0.43 -2.5,-0.66 -6.39,-1.77 -13.47,-5.5 -18.53,-9.9l-7.01 -7.21c-0.31,-0.39 -0.4,-0.44 -0.66,-0.92 -0.61,0.32 -1.88,1.18 -2.24,1.71zm41.2 -26.46c-7.58,0 -7.66,-11.22 -0.12,-11.43 4.22,-0.12 8.05,5.46 4.1,9.75 -0.92,1 -2.51,1.68 -3.98,1.68zm-15.66 -6.58c0,3.13 0.12,5 1.58,7.9 0.46,0.91 0.87,1.56 1.47,2.35 0.34,0.45 0.52,0.57 0.87,0.98 2.34,2.79 6.21,4.96 9.92,5.22 2.03,0.14 1.3,0.16 3.54,-0 0.47,-0.03 1.11,-0.16 1.58,-0.26 6.71,-1.39 12.25,-7.75 12.25,-14.47 0,-4.35 -0.63,-6.52 -2.92,-9.98l-1.72 -2.09c-1.46,-1.21 -2.7,-2.19 -4.48,-3.02 -4.69,-2.18 -11.04,-1.68 -15.23,1.27 -1.55,1.09 -2.71,2.14 -3.84,3.67 -1.58,2.16 -3.01,5.44 -3.01,8.45zm18.82 -18.56c2.77,0.23 6.99,2.37 9.23,4.19l1.2 1.04c1.72,1.65 3.61,4.46 4.53,6.78 0.65,1.63 1.16,3.55 1.35,5.36 0.07,0.64 0.13,1.53 0.26,2.11 0.47,-0.13 1.08,-0.68 1.5,-1 1.51,-1.13 2.87,-2.24 4.19,-3.58 1.94,-1.96 3.23,-3.08 4.81,-5.45 6.35,-9.51 7.26,-23.14 -0.53,-32.06 -0.24,-0.28 -0.27,-0.38 -0.53,-0.66 -1.47,-1.59 -3.2,-2.91 -5.19,-3.89 -3.74,-1.85 -5.14,-2.06 -9.52,-2.06 -1.45,0 -3.12,0.39 -4.13,0.88 -3.05,1.48 -3.6,2.1 -5.09,5.05 -0.61,1.21 -0.96,2.35 -1.32,3.82 -0.64,2.6 -0.66,6.23 -0.66,9.48 0,1.8 -0.13,3.13 -0.13,4.87 0,1.71 0,3.42 0,5.13zm-43.57 42.12c5.27,0 11.13,-4.15 15.33,-7.31l7.84 -5.72c-2.15,-4.06 -2.37,-6.41 -2.37,-10.93 0,-1.52 0.3,-3.15 0.67,-4.33 0.36,-1.14 0.95,-2.59 1.52,-3.61 2.13,-3.81 2.22,-3.04 3.81,-5.01 0.29,-0.36 0.41,-0.4 0.45,-0.87 -0.42,-0.1 -0.88,-0.32 -1.36,-0.48 -6.06,-1.97 -13.94,-2.27 -19.81,-0.29 -3.96,1.33 -6.49,2.76 -9.57,5.17 -0.3,0.23 -0.36,0.33 -0.61,0.57 -0.3,0.28 -0.42,0.31 -0.73,0.59l-1.77 1.91c-0.22,0.24 -0.31,0.4 -0.53,0.66 -4.57,5.56 -6.55,13.53 -3.64,20.68 1.58,3.87 5.4,8.97 10.78,8.97zm40.28 -3.03c-5.45,0 -8.55,-2.14 -9.74,-2.24 0,3.86 0.86,9.13 2.05,12.56 2.36,6.76 7.98,13.62 14.44,16.5 5.03,2.24 8.77,3.14 14.77,2.2 3.46,-0.54 7.14,-2.42 9.45,-4.76 1.44,-1.45 2.08,-2.25 3.15,-3.96 0.33,-0.52 0.52,-0.99 0.81,-1.56 1.81,-3.58 1.29,-7.54 -1.15,-10.78 -1.82,-2.42 -5.09,-4.97 -7.58,-6.64 -0.93,-0.62 -1.86,-1.3 -2.85,-1.88 -1.11,-0.66 -8.37,-5.49 -8.86,-5.49 -0.25,0 -2.07,1.73 -2.87,2.27 -1.13,0.75 -1.95,1.26 -3.23,1.9 -2.09,1.04 -5.31,1.89 -8.38,1.89zm-65.16 -14.59l0 -7.92c0,-8.84 4.34,-22.08 9.37,-29.86 1.83,-2.83 5.13,-7.5 7.57,-9.93l4.94 -4.8c1.18,-1.18 5.48,-4.32 6.63,-5.09 9.03,-6.02 17.72,-9.05 28.58,-10.52 0.87,-0.12 6.46,-0.44 7.38,-0.32 1.14,0.16 2.53,0.05 3.86,0.09 3.4,0.1 7.03,0.65 10.31,1.4 3.08,0.7 6.22,1.64 9.11,2.74 0.99,0.38 1.82,0.75 2.71,1.11 5.02,2.06 10.34,5.43 14.56,8.87l4.15 3.62c2.66,2.68 5.07,5.27 7.36,8.31 3.43,4.57 6.28,9.88 8.33,15.23 1.99,5.19 4.16,13.48 4.16,19.14 0,11.15 0.02,15.12 -3.73,26.15 -1.15,3.39 -3.83,8.98 -5.8,11.97 -0.29,0.45 -0.47,0.78 -0.76,1.21 -0.54,0.8 -1.01,1.59 -1.59,2.36l-2.6 3.33 -8.78 8.86c-0.27,0.26 -0.32,0.26 -0.58,0.47l-5.07 3.75c-1.53,0.94 -3.34,2.13 -4.96,2.94 -3.46,1.73 -5.72,2.88 -9.62,4.21 -4.15,1.41 -8.33,2.37 -12.79,3 -1.15,0.16 -2.51,0.24 -3.62,0.33 -1.24,0.1 -2.55,-0.12 -3.75,0.06 -1.16,0.18 -2.41,-0.06 -3.74,-0.06 -2.51,0 -4.85,-0.22 -7.28,-0.62 -7.31,-1.22 -15.53,-3.95 -21.89,-7.73l-4.85 -3.05c-0.46,-0.31 -0.72,-0.52 -1.16,-0.82 -1.47,-1 -2.61,-2.03 -3.9,-3.07l-3.54 -3.17 -6.39 -7.44c-0.61,-0.81 -1.05,-1.47 -1.62,-2.33 -3.91,-5.86 -6.71,-11.8 -8.76,-18.76 -0.6,-2.03 -1.02,-4.17 -1.47,-6.43 -0.49,-2.53 -0.69,-4.89 -0.76,-7.25z"/>
  <rect class="fil1" x="0" y="0.12" width="129" height="129"/>
 </g>
</svg>
