<?xml version="1.0" encoding="UTF-8"?>
<!DOCTYPE svg PUBLIC "-//W3C//DTD SVG 1.1//EN" "http://www.w3.org/Graphics/SVG/1.1/DTD/svg11.dtd">
<!-- Creator: CorelDRAW 2020 (64-Bit) -->
<svg xmlns="http://www.w3.org/2000/svg" xml:space="preserve" width="0.590047in" height="0.57622in" version="1.1" style="shape-rendering:geometricPrecision; text-rendering:geometricPrecision; image-rendering:optimizeQuality; fill-rule:evenodd; clip-rule:evenodd"
viewBox="0 0 26.09 25.48"
 xmlns:xlink="http://www.w3.org/1999/xlink"
 xmlns:xodm="http://www.corel.com/coreldraw/odm/2003">
 <defs>
  <style type="text/css">
   <![CDATA[
    .fil0 {fill:#FEFEFE;fill-rule:nonzero}
   ]]>
  </style>
 </defs>
 <g id="Layer_x0020_1">
  <metadata id="CorelCorpID_0Corel-Layer"/>
  <path class="fil0" d="M26.09 10.07c0,-3.24 -4.7,-8.64 -5.64,-9.69 -0.46,-0.49 -1.24,-0.51 -1.73,-0.05 -0.02,0.02 -0.04,0.03 -0.05,0.05 -1.65,1.85 -3.11,3.86 -4.39,5.98 -0.77,-0.94 -1.36,-1.61 -1.56,-1.83 -0.46,-0.49 -1.24,-0.51 -1.73,-0.05 -0.02,0.02 -0.04,0.03 -0.05,0.05 -1.62,1.83 -3.12,3.77 -4.49,5.79 -0.55,-0.92 -1.07,-1.7 -1.36,-2.11 -0.37,-0.54 -1.11,-0.67 -1.65,-0.3 -0.12,0.08 -0.22,0.18 -0.3,0.3 -0.71,1.08 -3.14,4.74 -3.14,6.6 -0.01,2.15 1.62,3.94 3.75,4.15 0.99,4.48 5.42,7.3 9.9,6.31 3.8,-0.84 6.5,-4.2 6.51,-8.09 -0,-0.2 -0.02,-0.4 -0.05,-0.59 3.39,-0.28 5.99,-3.12 5.98,-6.52zm-9.66 5.76c-0.09,-0.31 -0.42,-0.49 -0.74,-0.4 -0.31,0.09 -0.49,0.42 -0.4,0.74 0.37,1.24 0.04,2.58 -0.87,3.5 -0.23,0.23 -0.23,0.61 0.01,0.84 0.1,0.1 0.24,0.16 0.39,0.17 0.16,-0 0.31,-0.06 0.42,-0.18 1.22,-1.23 1.67,-3.01 1.19,-4.67zm-2.81 5.16c-0.09,-0.31 -0.42,-0.49 -0.74,-0.4 -0.33,0.1 -0.67,0.15 -1.02,0.15 -0.33,0 -0.59,0.27 -0.59,0.59 0,0.33 0.27,0.59 0.59,0.59 0.46,0 0.92,-0.06 1.36,-0.2 0.31,-0.09 0.49,-0.42 0.4,-0.74zm7.91 -14.22c-0.49,-0.72 -1.01,-1.39 -1.36,-1.82 -0.19,-0.26 -0.56,-0.32 -0.83,-0.13 -0.26,0.19 -0.32,0.56 -0.13,0.83 0.01,0.02 0.02,0.03 0.04,0.05 0.34,0.41 0.84,1.05 1.3,1.74 0.18,0.27 0.55,0.34 0.82,0.16 0.27,-0.18 0.34,-0.55 0.16,-0.82zm1.1 1.93c-0.01,-0.02 -0.02,-0.05 -0.03,-0.07 -0.09,-0.21 -0.2,-0.42 -0.31,-0.63 -0.18,-0.28 -0.54,-0.36 -0.82,-0.18 -0.25,0.16 -0.35,0.48 -0.22,0.75 0.1,0.18 0.2,0.37 0.27,0.55 0.12,0.31 0.46,0.46 0.76,0.34 0.31,-0.12 0.46,-0.46 0.34,-0.76zm-18.48 7.88c-0.98,0 -1.78,-0.8 -1.78,-1.78 0,-0.59 0.81,-2.18 1.78,-3.75 0.97,1.58 1.78,3.16 1.78,3.75 0,0.98 -0.8,1.78 -1.78,1.78zm7.71 6.52c-2.77,-0.02 -5.16,-1.93 -5.78,-4.63 1.36,-0.72 2.22,-2.13 2.22,-3.67 -0.05,-0.67 -0.22,-1.32 -0.5,-1.93 0.05,-0.26 0.15,-0.51 0.31,-0.72 1.15,-1.75 2.4,-3.42 3.75,-5.02 2.6,3.07 5.93,7.78 5.93,10.04 0,3.27 -2.65,5.93 -5.93,5.93zm7.71 -8.89l-0.14 0c-0.95,-2.06 -2.13,-4 -3.51,-5.79 0.02,-0.07 0.05,-0.14 0.09,-0.21 1,-1.86 2.19,-3.61 3.56,-5.22 1.94,2.37 4.15,5.58 4.15,7.07 0,2.29 -1.86,4.15 -4.15,4.15z"/>
 </g>
</svg>
