<?xml version="1.0" encoding="UTF-8"?>
<!DOCTYPE svg PUBLIC "-//W3C//DTD SVG 1.1//EN" "http://www.w3.org/Graphics/SVG/1.1/DTD/svg11.dtd">
<!-- Creator: CorelDRAW 2020 (64-Bit) -->
<svg xmlns="http://www.w3.org/2000/svg" xml:space="preserve" width="0.59in" height="0.590008in" version="1.1" style="shape-rendering:geometricPrecision; text-rendering:geometricPrecision; image-rendering:optimizeQuality; fill-rule:evenodd; clip-rule:evenodd"
viewBox="0 0 48.74 48.74"
 xmlns:xlink="http://www.w3.org/1999/xlink"
 xmlns:xodm="http://www.corel.com/coreldraw/odm/2003">
 <defs>
  <style type="text/css">
   <![CDATA[
    .fil1 {fill:none}
    .fil0 {fill:#FEFEFE}
   ]]>
  </style>
 </defs>
 <g id="Layer_x0020_1">
  <metadata id="CorelCorpID_0Corel-Layer"/>
  <path class="fil0" d="M23.59 11.68c6.87,-0.5 12.68,5.36 11.91,12.39 -0.27,2.43 -1.33,4.7 -2.9,6.35 -0.78,0.81 -1.54,1.45 -2.27,2.37 -0.22,0.28 -0.42,0.55 -0.63,0.88 -1.33,2.13 -1.25,3.65 -1.82,4.25 -0.6,0.62 -1.61,0.44 -2.61,0.44 -1.04,0 -2.08,0.01 -3.12,0 -1.09,-0.01 -1.46,-0.4 -1.69,-1.37 -0.99,-4.25 -3.23,-5.12 -4.97,-7.33 -5.34,-6.78 -1.02,-17.32 8.11,-17.99zm0.45 1.46c-0.26,0.1 -0.39,0.13 -0.54,0.44 -0.38,0.82 0.41,1.66 1.25,1.33 1.04,-0.41 0.55,-2.26 -0.71,-1.77zm-2.13 34.82c0.2,1 1.7,0.74 2.67,0.74 0.42,0 1.36,0.06 1.68,-0.07 0.35,-0.15 0.67,-0.54 0.58,-1.07 -0.17,-1.05 -1.65,-0.8 -2.69,-0.8 -1.03,0 -2.52,-0.15 -2.25,1.2zm2.24 -47.92c-0.75,0.19 -0.76,0.7 -0.76,1.47 0,0.73 0,1.46 0,2.19 0,1.08 -0.39,3.43 1.21,3.06 0.68,-0.16 0.74,-0.65 0.74,-1.46 -0,-0.73 -0,-1.46 -0,-2.19 0,-1.07 0.35,-3.46 -1.19,-3.07zm-22.57 23.05c0.06,0.25 0.27,0.5 0.47,0.61 0.4,0.21 2.61,0.12 3.14,0.12 1.09,0 3.36,0.41 3.12,-1.14 -0.11,-0.71 -0.63,-0.81 -1.43,-0.81 -0.73,0 -1.46,0 -2.19,0 -1.16,0 -3.46,-0.39 -3.11,1.21zm38.86 0c0.06,0.25 0.27,0.5 0.47,0.61 0.39,0.21 2.62,0.12 3.14,0.12 1.1,0 3.35,0.41 3.12,-1.14 -0.16,-1.12 -1.95,-0.8 -3.63,-0.8 -1.17,0 -3.46,-0.41 -3.11,1.21zm-31.77 -16.63c-0.76,0.23 -0.93,1.08 -0.4,1.67 0.41,0.46 0.9,0.91 1.35,1.35 0.47,0.47 0.88,0.88 1.35,1.35 0.33,0.33 0.9,1.14 1.68,0.91 0.73,-0.21 0.83,-1.16 0.36,-1.68l-2.7 -2.7c-0.33,-0.33 -0.88,-1.13 -1.63,-0.9zm30.92 -0.01c-0.53,0.15 -1.09,0.85 -1.44,1.2 -0.41,0.42 -2.5,2.42 -2.64,2.76 -0.31,0.79 0.36,1.54 1.16,1.33 0.5,-0.13 3.92,-3.65 4.05,-3.97 0.31,-0.78 -0.38,-1.53 -1.12,-1.32zm-19.95 38.64c0.12,0.92 1.07,0.81 2,0.81l5.73 0c0.56,0 1.83,0.15 1.76,-1.05 -0.07,-0.99 -1.09,-0.89 -2.01,-0.89 -0.96,0 -1.91,-0 -2.87,-0 -0.96,0 -1.91,0 -2.87,0 -0.93,-0 -1.89,0.05 -1.74,1.13zm9.45 -2.7c0.12,-0.4 -0.08,-0.83 -0.29,-1.01 -0.29,-0.25 -0.73,-0.23 -1.18,-0.22l-5.73 0c-0.95,0 -1.92,-0.18 -2.2,0.64 -0.35,1.04 0.55,1.31 1.44,1.31l5.73 -0c0.96,0 1.96,0.2 2.23,-0.71zm-1.06 -28.27c-0.42,0.19 -0.77,0.73 -0.45,1.34 0.34,0.65 3.67,1.57 4.51,5.86 0.1,0.52 0.09,1.44 0.2,1.83 0.14,0.5 0.74,0.82 1.3,0.59 0.97,-0.39 0.56,-2.24 0.31,-3.22 -0.5,-2.02 -1.63,-3.88 -3.14,-5.12 -0.44,-0.36 -1.89,-1.65 -2.72,-1.28zm-16.73 9.98c0.3,3.26 1.44,5.17 3.22,7.45 0.19,0.24 0.24,0.25 0.47,0.45 0.18,0.17 0.2,0.23 0.4,0.44 0.29,0.31 0.63,0.49 0.95,0.82 1.54,1.62 1.78,2.82 2.37,4.72 0.76,2.47 3.11,2.31 4.79,2.31 2.32,0 4.84,0.35 5.97,-1.21 1.06,-1.45 0.47,-3.05 3.01,-5.85 0.31,-0.35 0.65,-0.52 0.94,-0.83 1.85,-2 3.16,-3.72 3.81,-6.81 1.77,-8.4 -4.55,-15.41 -11.96,-15.88 -8.06,-0.5 -14.7,6.19 -13.96,14.37z"/>
  <rect class="fil1" x="-0" y="0" width="48.74" height="48.74"/>
 </g>
</svg>
