<?xml version="1.0" encoding="UTF-8"?>
<!DOCTYPE svg PUBLIC "-//W3C//DTD SVG 1.1//EN" "http://www.w3.org/Graphics/SVG/1.1/DTD/svg11.dtd">
<!-- Creator: CorelDRAW 2020 (64-Bit) -->
<svg xmlns="http://www.w3.org/2000/svg" xml:space="preserve" width="0.590004in" height="0.59in" version="1.1" style="shape-rendering:geometricPrecision; text-rendering:geometricPrecision; image-rendering:optimizeQuality; fill-rule:evenodd; clip-rule:evenodd"
viewBox="0 0 143.06 143.05"
 xmlns:xlink="http://www.w3.org/1999/xlink"
 xmlns:xodm="http://www.corel.com/coreldraw/odm/2003">
 <defs>
  <style type="text/css">
   <![CDATA[
    .fil1 {fill:none}
    .fil0 {fill:#FEFEFE}
   ]]>
  </style>
 </defs>
 <g id="Layer_x0020_1">
  <metadata id="CorelCorpID_0Corel-Layer"/>
  <path class="fil0" d="M129.3 101.02c2.77,-2.22 5.38,-5.35 7.37,-8.26 15.96,-23.32 0.23,-56.85 -27.78,-59.34 -3.15,-11.49 -7.7,-18.68 -19.52,-22.86 -11.87,-4.2 -26.09,1.33 -32.44,11.44 -4.27,6.79 -4.26,9.89 -4.67,18.9 -12.92,7.31 -32.6,13.88 -47.24,20.4 -2.69,1.2 -5.66,1.35 -4.86,4.6 2.02,1.19 5.09,-0.28 7.53,-1.05 22.22,-7.05 44.72,-13.63 67.02,-20.44 4.9,-1.45 11.17,-2.32 11.53,-7.87 0.19,-3.05 -1.55,-5.17 -3.4,-6.13 -3.91,-2.03 -9.09,1.25 -14.51,3.56 -2.23,0.95 -4.89,2.32 -7.11,2.96 0.69,-12.29 9.89,-18.54 19.11,-18.74 19.88,-0.43 18.45,18.81 20.23,20.61 0.43,5.52 8.66,0.9 19.03,7.29 20.64,12.74 18.07,40.38 0.32,50.75 -11.42,6.67 -17.28,1.92 -19.38,6.98 -0.53,1.28 -0.4,3.93 -0.75,5.63 -1.02,5.03 -3.9,9.12 -7.92,12.04 -12.98,9.45 -30.47,-0.61 -30.63,-15.88l13.85 5.81c2.4,1.05 5,2.2 7.71,0.72 1.91,-1.05 3.73,-3.15 3.43,-6.37 -0.5,-5.43 -6.67,-6.24 -11.68,-7.72 -5.08,-1.51 -9.98,-3.04 -15.05,-4.64 -17.39,-5.28 -34.84,-10.46 -52.2,-15.86 -2.14,-0.67 -5.83,-2.5 -7.19,-0.55 -0.82,2.62 2.78,3.3 4.94,4.26 14.43,6.23 33.9,13.16 47.25,20.44 -0.47,12.77 4.37,24 16.1,29.43 7.15,3.31 15.8,3.91 23.46,0.5 8.97,-3.99 15.33,-11.99 16.85,-21.69 8.68,-1.04 11.17,-1.38 20.58,-8.92zm-39.38 -35.99c-7.62,0.53 -77.98,3.76 -79.65,4.67 -1.81,1 -0.86,3.26 1.66,3.46 3.83,0.3 82.13,5.73 85.68,3.7 6.29,-3.6 4.35,-12.67 -7.69,-11.83z"/>
  <rect class="fil1" x="-0" width="143.05" height="143.05"/>
 </g>
</svg>
