<?xml version="1.0" encoding="UTF-8"?>
<!DOCTYPE svg PUBLIC "-//W3C//DTD SVG 1.1//EN" "http://www.w3.org/Graphics/SVG/1.1/DTD/svg11.dtd">
<!-- Creator: CorelDRAW 2020 (64-Bit) -->
<svg xmlns="http://www.w3.org/2000/svg" xml:space="preserve" width="0.59002in" height="0.591043in" version="1.1" style="shape-rendering:geometricPrecision; text-rendering:geometricPrecision; image-rendering:optimizeQuality; fill-rule:evenodd; clip-rule:evenodd"
viewBox="0 0 24.05 24.09"
 xmlns:xlink="http://www.w3.org/1999/xlink"
 xmlns:xodm="http://www.corel.com/coreldraw/odm/2003">
 <defs>
  <style type="text/css">
   <![CDATA[
    .fil0 {fill:none}
    .fil1 {fill:#FEFEFE;fill-rule:nonzero}
   ]]>
  </style>
 </defs>
 <g id="Layer_x0020_1">
  <metadata id="CorelCorpID_0Corel-Layer"/>
  <rect class="fil0" x="-0" width="24.05" height="24.05"/>
  <path class="fil1" d="M7.8 13.6l0 -9.55c0,-2.21 1.79,-4.01 4.01,-4.01 2.21,0 4.01,1.79 4.01,4.01l0 9.55c1.23,1.1 2,2.7 2,4.48 0,3.32 -2.69,6.01 -6.01,6.01 -3.32,0 -6.01,-2.69 -6.01,-6.01 0,-1.78 0.77,-3.38 2,-4.48zm1 4.48c0,-1.31 0.84,-2.42 2,-2.83l0 -7.19 2 0 0 7.19c1.17,0.41 2,1.53 2,2.83 0,1.66 -1.35,3.01 -3.01,3.01 -1.66,0 -3.01,-1.35 -3.01,-3.01zm3.01 4.01c2.21,0 4.01,-1.79 4.01,-4.01 0,-1.16 -0.49,-2.23 -1.34,-2.99l-0.67 -0.6 0 -10.44c0,-1.11 -0.9,-2 -2,-2 -1.11,0 -2,0.9 -2,2l0 10.44 -0.67 0.6c-0.85,0.76 -1.34,1.83 -1.34,2.99 0,2.21 1.79,4.01 4.01,4.01z"/>
 </g>
</svg>
